<svg width="23" height="23" viewBox="0 0 23 23" fill="none" xmlns="http://www.w3.org/2000/svg">
<path d="M5.36667 19.0897L6.82717 17.9215L6.83675 17.9138C7.1415 17.6694 7.29579 17.5468 7.46733 17.4595C7.62131 17.381 7.78358 17.3241 7.95417 17.289C8.14488 17.2497 8.34325 17.2497 8.74192 17.2497H17.0612C18.1326 17.2497 18.6693 17.2497 19.0785 17.0408C19.4391 16.857 19.7323 16.5638 19.9161 16.2032C20.125 15.793 20.125 15.2563 20.125 14.1868V6.8968C20.125 5.82538 20.125 5.28872 19.9161 4.87951C19.7321 4.51873 19.4385 4.22552 19.0775 4.04192C18.6683 3.83301 18.1317 3.83301 17.0583 3.83301H5.94167C4.86833 3.83301 4.33167 3.83301 3.9215 4.04192C3.56087 4.22568 3.26767 4.51888 3.08392 4.87951C2.875 5.28967 2.875 5.82634 2.875 6.89967V17.8927C2.875 18.9143 2.875 19.4251 3.08392 19.6867C3.17375 19.7995 3.28788 19.8906 3.41781 19.9531C3.54773 20.0157 3.69009 20.0481 3.83429 20.048C4.16971 20.048 4.56837 19.7279 5.36667 19.0897Z" stroke="white" stroke-width="2" stroke-linecap="round" stroke-linejoin="round"/>
</svg>
