<svg width="169" height="169" viewBox="0 0 169 169" fill="none" xmlns="http://www.w3.org/2000/svg">
<g filter="url(#filter0_d_0_1)">
<circle cx="84.5" cy="80.5" r="80.5" fill="white"/>
</g>
<path fill-rule="evenodd" clip-rule="evenodd" d="M72.4881 51.9032C75.51 48.9005 79.6961 47.2217 84.5004 47.2217C89.3048 47.2217 93.4908 48.9005 96.5127 51.9032C99.5302 54.9 101.255 59.0816 101.401 63.8549C101.469 66.0944 101.511 68.6711 101.511 71.6279C101.511 74.5848 101.469 77.1615 101.401 79.4024C101.255 84.1742 99.5302 88.3558 96.5127 91.3526C93.4908 94.3553 89.3048 96.0342 84.5004 96.0342C79.6961 96.0342 75.51 94.3553 72.4881 91.3526C69.4706 88.3558 67.7459 84.1742 67.5995 79.4009C67.5236 76.8106 67.4871 74.2193 67.49 71.6279C67.49 68.6696 67.5314 66.0944 67.5995 63.8534C67.7444 59.0816 69.4706 54.9015 72.4881 51.9032ZM63.1353 73.8467C63.3602 73.8467 63.582 73.8595 63.801 73.8851C63.8158 75.956 63.8513 77.8271 63.9045 79.5148C64.0746 85.1209 66.1173 90.2388 69.8818 93.9767C73.6596 97.7278 78.8101 99.7321 84.5004 99.7321C90.1908 99.7321 95.3427 97.7278 99.119 93.9767C102.882 90.2373 104.926 85.1209 105.098 79.5148C105.15 77.8212 105.187 75.9427 105.201 73.8629C105.345 73.8531 105.49 73.8477 105.636 73.8467H107.238C110.554 73.8467 113.195 76.6083 113.11 79.892C112.747 94.1911 103.929 104.721 90.744 107.273C90.6587 108.104 90.5581 108.934 90.4422 109.762C90.1612 111.759 88.6199 113.57 86.3065 113.726C85.8006 113.763 85.1991 113.782 84.5019 113.784C83.8037 113.782 83.2017 113.763 82.6958 113.726C80.3824 113.568 78.8382 111.759 78.5616 109.758C78.4501 108.947 78.3529 108.133 78.2702 107.319C64.9518 104.851 56.0265 94.2814 55.6581 79.8935C55.5753 76.6098 58.2171 73.8482 61.5304 73.8482L63.1353 73.8467Z" fill="#024A14"/>
<defs>
<filter id="filter0_d_0_1" x="0" y="0" width="169" height="169" filterUnits="userSpaceOnUse" color-interpolation-filters="sRGB">
<feFlood flood-opacity="0" result="BackgroundImageFix"/>
<feColorMatrix in="SourceAlpha" type="matrix" values="0 0 0 0 0 0 0 0 0 0 0 0 0 0 0 0 0 0 127 0" result="hardAlpha"/>
<feOffset dy="4"/>
<feGaussianBlur stdDeviation="2"/>
<feComposite in2="hardAlpha" operator="out"/>
<feColorMatrix type="matrix" values="0 0 0 0 1 0 0 0 0 1 0 0 0 0 1 0 0 0 0.36 0"/>
<feBlend mode="normal" in2="BackgroundImageFix" result="effect1_dropShadow_0_1"/>
<feBlend mode="normal" in="SourceGraphic" in2="effect1_dropShadow_0_1" result="shape"/>
</filter>
</defs>
</svg>
