<svg width="23" height="23" viewBox="0 0 23 23" fill="none" xmlns="http://www.w3.org/2000/svg">
<path d="M4.94501 19.4879C5.27808 19.8196 5.71043 20.0334 6.17624 20.0967C6.64205 20.1601 7.11579 20.0694 7.52532 19.8386L19.0253 13.3699C19.3572 13.1818 19.6332 12.9091 19.8252 12.5795C20.0173 12.25 20.1184 11.8754 20.1184 11.4939C20.1184 11.1125 20.0173 10.7379 19.8252 10.4083C19.6332 10.0788 19.3572 9.80606 19.0253 9.61799L7.51095 3.13918C7.18164 2.96666 6.81376 2.88101 6.44211 2.89034C6.07047 2.89967 5.70735 3.00367 5.38712 3.1925C5.06688 3.38133 4.80012 3.64874 4.61208 3.96944C4.42403 4.29014 4.32093 4.65351 4.31251 5.02518V17.9627C4.31251 18.5348 4.53964 19.0839 4.94501 19.4864M5.95988 4.51631C6.07086 4.40535 6.2151 4.33377 6.37058 4.31248C6.52606 4.2912 6.68423 4.32138 6.82095 4.39843L18.3209 10.8672C18.4316 10.9299 18.5236 11.0208 18.5876 11.1306C18.6516 11.2405 18.6853 11.3654 18.6853 11.4925C18.6853 11.6196 18.6516 11.7445 18.5876 11.8544C18.5236 11.9642 18.4316 12.0551 18.3209 12.1178L6.83532 18.5779C6.72709 18.6464 6.60229 18.6843 6.47423 18.6874C6.34618 18.6905 6.21969 18.6588 6.10825 18.5956C5.99682 18.5324 5.90464 18.4402 5.84154 18.3287C5.77845 18.2173 5.74681 18.0907 5.75001 17.9627V5.02518C5.75005 4.83492 5.82552 4.65101 5.95988 4.51631ZM15.4675 17.0139L17.2213 16.0364C17.2385 16.1562 17.2481 16.276 17.25 16.3958C17.2499 16.7781 17.1488 17.1536 16.9569 17.4842C16.7651 17.8149 16.4893 18.0891 16.1575 18.2789L8.85501 22.3902C8.11973 22.7804 7.30116 22.9875 6.46876 22.9939C6.02571 22.9992 5.58449 22.9362 5.16063 22.8071C4.28821 22.5852 3.49603 22.1219 2.87501 21.4702C1.95163 20.5366 1.4349 19.2758 1.43751 17.9627V9.92706C1.44049 9.4861 1.58042 9.05696 1.83795 8.69899C2.09548 8.34103 2.45787 8.07194 2.87501 7.92893V17.9627C2.88117 18.5841 3.04752 19.1933 3.35798 19.7316C3.66843 20.2699 4.1125 20.719 4.64725 21.0356C5.18201 21.3521 5.78937 21.5253 6.41063 21.5385C7.0319 21.5517 7.64606 21.4044 8.19376 21.1108L15.4531 17.0283C15.4569 17.0283 15.4606 17.0268 15.4633 17.0241C15.466 17.0214 15.4675 17.0177 15.4675 17.0139Z" fill="white"/>
</svg>
