<svg width="26" height="26" viewBox="0 0 26 26" fill="none" xmlns="http://www.w3.org/2000/svg">
<path d="M4.33366 19.5H6.50033V23.9211L12.0264 19.5H17.3337C18.5286 19.5 19.5003 18.5283 19.5003 17.3333V8.66667C19.5003 7.47175 18.5286 6.5 17.3337 6.5H4.33366C3.13874 6.5 2.16699 7.47175 2.16699 8.66667V17.3333C2.16699 18.5283 3.13874 19.5 4.33366 19.5Z" fill="#024A14"/>
<path d="M21.6667 2.16663H8.66667C7.47175 2.16663 6.5 3.13838 6.5 4.33329H19.5C20.6949 4.33329 21.6667 5.30504 21.6667 6.49996V15.1666C22.8616 15.1666 23.8333 14.1949 23.8333 13V4.33329C23.8333 3.13838 22.8616 2.16663 21.6667 2.16663Z" fill="#024A14"/>
</svg>
