<svg width="24" height="24" viewBox="0 0 24 24" fill="none" xmlns="http://www.w3.org/2000/svg">
<path d="M5.16001 20.3355C5.50756 20.6817 5.95871 20.9048 6.44477 20.9709C6.93083 21.0369 7.42517 20.9423 7.85251 20.7015L19.8525 13.9515C20.1988 13.7553 20.4868 13.4707 20.6872 13.1268C20.8876 12.7829 20.9931 12.392 20.9931 11.994C20.9931 11.596 20.8876 11.2051 20.6872 10.8612C20.4868 10.5173 20.1988 10.2327 19.8525 10.0365L7.83751 3.27601C7.49389 3.09598 7.11001 3.00661 6.72221 3.01634C6.3344 3.02608 5.9555 3.1346 5.62134 3.33164C5.28718 3.52868 5.00882 3.80773 4.8126 4.14237C4.61638 4.47701 4.50879 4.85618 4.50001 5.24401V18.744C4.50001 19.341 4.73701 19.914 5.16001 20.334M6.21901 4.71301C6.33481 4.59723 6.48532 4.52253 6.64756 4.50032C6.8098 4.47811 6.97485 4.50961 7.11751 4.59001L19.1175 11.34C19.2329 11.4054 19.3289 11.5003 19.3957 11.6149C19.4625 11.7295 19.4977 11.8598 19.4977 11.9925C19.4977 12.1252 19.4625 12.2555 19.3957 12.3701C19.3289 12.4847 19.2329 12.5796 19.1175 12.645L7.13251 19.386C7.01958 19.4575 6.88934 19.497 6.75572 19.5002C6.6221 19.5035 6.49011 19.4704 6.37383 19.4045C6.25755 19.3385 6.16136 19.2423 6.09552 19.126C6.02968 19.0096 5.99667 18.8776 6.00001 18.744V5.24401C6.00005 5.04548 6.07881 4.85357 6.21901 4.71301ZM16.14 17.754L17.97 16.734C17.988 16.859 17.998 16.984 18 17.109C17.9999 17.5079 17.8944 17.8997 17.6942 18.2448C17.494 18.5898 17.2062 18.8759 16.86 19.074L9.24001 23.364C8.47276 23.7712 7.6186 23.9873 6.75001 23.994C6.28769 23.9995 5.82729 23.9337 5.38501 23.799C4.47466 23.5675 3.64803 23.084 3.00001 22.404C2.03649 21.4298 1.49728 20.1142 1.50001 18.744V10.359C1.50312 9.89887 1.64914 9.45108 1.91786 9.07755C2.18658 8.70403 2.56474 8.42323 3.00001 8.27401V18.744C3.00644 19.3924 3.18002 20.0282 3.50398 20.5899C3.82793 21.1516 4.2913 21.6202 4.84931 21.9505C5.40731 22.2808 6.04108 22.4615 6.68936 22.4753C7.33763 22.489 7.9785 22.3353 8.55001 22.029L16.125 17.769C16.129 17.769 16.1328 17.7674 16.1356 17.7646C16.1384 17.7618 16.14 17.758 16.14 17.754Z" fill="black"/>
</svg>
