<svg width="24" height="24" viewBox="0 0 24 24" fill="none" xmlns="http://www.w3.org/2000/svg">
<path d="M7.99984 19C7.71651 19 7.47918 18.904 7.28784 18.712C7.09651 18.52 7.00051 18.2827 6.99984 18C6.99918 17.7174 7.09518 17.48 7.28784 17.288C7.48051 17.096 7.71784 17 7.99984 17H14.0998C15.1498 17 16.0625 16.6667 16.8378 16C17.6132 15.3334 18.0005 14.5 17.9998 13.5C17.9992 12.5 17.6118 11.6667 16.8378 11C16.0638 10.3334 15.1512 10 14.0998 10H7.79984L9.69984 11.9C9.88318 12.0834 9.97484 12.3167 9.97484 12.6C9.97484 12.8834 9.88318 13.1167 9.69984 13.3C9.51651 13.4834 9.28318 13.575 8.99984 13.575C8.71651 13.575 8.48318 13.4834 8.29984 13.3L4.69984 9.70005C4.59984 9.60005 4.52884 9.49172 4.48684 9.37505C4.44484 9.25838 4.42451 9.13338 4.42584 9.00005C4.42718 8.86672 4.44818 8.74172 4.48884 8.62505C4.52951 8.50838 4.59984 8.40005 4.69984 8.30005L8.29984 4.70005C8.48318 4.51672 8.71651 4.42505 8.99984 4.42505C9.28318 4.42505 9.51651 4.51672 9.69984 4.70005C9.88318 4.88338 9.97484 5.11672 9.97484 5.40005C9.97484 5.68338 9.88318 5.91672 9.69984 6.10005L7.79984 8.00005H14.0998C15.7165 8.00005 17.1042 8.52505 18.2628 9.57505C19.4215 10.625 20.0005 11.9334 19.9998 13.5C19.9992 15.0667 19.4202 16.375 18.2628 17.425C17.1055 18.475 15.7178 19 14.0998 19H7.99984Z" fill="#818181"/>
</svg>
