<svg width="17" height="19" viewBox="0 0 17 19" fill="none" xmlns="http://www.w3.org/2000/svg">
<path d="M2.05163 1.09449C1.94589 1.03366 1.82544 1.00107 1.70252 1.00003C1.5796 0.998984 1.45859 1.02953 1.35177 1.08856C1.24496 1.14759 1.15615 1.233 1.09436 1.33612C1.03258 1.43923 1.00002 1.55638 1 1.67566V17.3243C1.00002 17.4436 1.03258 17.5608 1.09436 17.6639C1.15615 17.767 1.24496 17.8524 1.35177 17.9114C1.45859 17.9705 1.5796 18.001 1.70252 18C1.82544 17.9989 1.94589 17.9663 2.05163 17.9055L15.6589 10.0812C15.7629 10.0213 15.849 9.93629 15.9088 9.83439C15.9686 9.7325 16 9.61726 16 9.5C16 9.38274 15.9686 9.2675 15.9088 9.16561C15.849 9.06371 15.7629 8.97867 15.6589 8.91883L2.05163 1.09449Z" stroke="white" stroke-width="1.5" stroke-linecap="round" stroke-linejoin="round"/>
</svg>
