<svg width="51" height="51" viewBox="0 0 51 51" fill="none" xmlns="http://www.w3.org/2000/svg">
<path d="M10.625 13.8125V37.1875H2.125V13.8125H10.625ZM14.875 38.6962L31.875 48.2587V2.74121L14.875 12.3037V38.6962ZM45.8596 16.5325L44.5804 14.8346L41.1889 17.3973L42.4681 19.0931C43.862 20.9384 44.6158 23.1881 44.615 25.5007C44.6142 27.8133 43.859 30.0625 42.4639 31.9068L41.1825 33.6005L44.5719 36.1632L45.8532 34.4696C47.8064 31.8875 48.8639 28.7387 48.865 25.501C48.8662 22.2634 47.811 19.1138 45.8596 16.5303" fill="#024A14"/>
<path d="M39.9269 21.0141L38.6456 19.3184L35.2541 21.879L36.5355 23.5747C36.9538 24.1282 37.1801 24.803 37.1801 25.4968C37.1801 26.1906 36.9538 26.8654 36.5355 27.4189L35.252 29.1125L38.6413 31.6774L39.9227 29.9816C40.899 28.6909 41.4276 27.1169 41.4283 25.4986C41.4291 23.8802 40.902 22.3058 39.9269 21.0141Z" fill="#024A14"/>
</svg>
