<svg width="20" height="26" viewBox="0 0 20 26" fill="none" xmlns="http://www.w3.org/2000/svg">
<path d="M10.6584 24.7547L10.6462 24.7571L10.5673 24.798L10.5451 24.8027L10.5295 24.798L10.4507 24.7571C10.4388 24.7532 10.4299 24.7551 10.424 24.7629L10.4195 24.7746L10.4007 25.2755L10.4062 25.2989L10.4173 25.3141L10.5329 25.4007L10.5495 25.4054L10.5629 25.4007L10.6784 25.3141L10.6918 25.2954L10.6962 25.2755L10.6773 24.7758C10.6744 24.7633 10.6681 24.7563 10.6584 24.7547ZM10.9529 24.6225L10.9384 24.6248L10.7329 24.7337L10.7218 24.7454L10.7184 24.7582L10.7384 25.2614L10.744 25.2755L10.7529 25.2837L10.9762 25.3925C10.9903 25.3964 11.001 25.3933 11.0084 25.3831L11.0129 25.3667L10.9751 24.6483C10.9714 24.6342 10.964 24.6256 10.9529 24.6225ZM10.1584 24.6248C10.1535 24.6217 10.1477 24.6207 10.1421 24.622C10.1365 24.6233 10.1316 24.6269 10.1284 24.6319L10.1218 24.6483L10.084 25.3667C10.0847 25.3808 10.091 25.3901 10.1029 25.3948L10.1195 25.3925L10.3429 25.2837L10.354 25.2743L10.3584 25.2614L10.3773 24.7582L10.374 24.7442L10.3629 24.7325L10.1584 24.6248Z" fill="#024A14"/>
<path d="M8.88889 8.07043V15.0915C8.8892 15.3898 8.99764 15.6766 9.19205 15.8935C9.38646 16.1104 9.65217 16.2409 9.93488 16.2584C10.2176 16.2759 10.496 16.179 10.7131 15.9876C10.9303 15.7961 11.0699 15.5246 11.1033 15.2284L11.1111 15.0915V8.07043H17.7778C18.3384 8.07024 18.8784 8.29323 19.2895 8.69471C19.7006 9.09619 19.9524 9.64648 19.9944 10.2353L20 10.4108V20.9424C20.0002 21.5329 19.7884 22.1016 19.4072 22.5345C19.026 22.9674 18.5035 23.2326 17.9444 23.2769L17.7778 23.2828H2.22222C1.66158 23.283 1.12159 23.06 0.710502 22.6585C0.299412 22.257 0.0476038 21.7067 0.00555579 21.1179L1.11409e-07 20.9424V10.4108C-0.00017731 9.82034 0.211563 9.25164 0.592774 8.8187C0.973986 8.38575 1.49649 8.12056 2.05556 8.07628L2.22222 8.07043H8.88889ZM10.9822 0.427974L14.7144 4.35744C14.9229 4.57701 15.0401 4.87482 15.0401 5.18534C15.0401 5.49587 14.9229 5.79367 14.7144 6.01325C14.506 6.23282 14.2232 6.35618 13.9283 6.35618C13.6335 6.35618 13.3507 6.23282 13.1422 6.01325L11.1111 3.87299V8.07043H8.88889V3.87299L6.85778 6.01325C6.75454 6.12197 6.63199 6.20821 6.49711 6.26705C6.36223 6.32589 6.21766 6.35618 6.07167 6.35618C5.92567 6.35618 5.78111 6.32589 5.64623 6.26705C5.51135 6.20821 5.38879 6.12197 5.28556 6.01325C5.18232 5.90453 5.10043 5.77545 5.04456 5.6334C4.98869 5.49135 4.95994 5.3391 4.95994 5.18534C4.95994 5.03159 4.98869 4.87934 5.04456 4.73729C5.10043 4.59523 5.18232 4.46616 5.28556 4.35744L9.01889 0.427974C9.27932 0.153934 9.63241 0 10.0006 0C10.3687 0 10.7218 0.153934 10.9822 0.427974Z" fill="#024A14"/>
</svg>
