<svg width="169" height="169" viewBox="0 0 169 169" fill="none" xmlns="http://www.w3.org/2000/svg">
<g filter="url(#filter0_d_0_1)">
<circle cx="84.5" cy="80.5" r="80.5" fill="#024A14"/>
</g>
<path fill-rule="evenodd" clip-rule="evenodd" d="M72.4876 51.9032C75.5096 48.9005 79.6956 47.2217 84.4999 47.2217C89.3043 47.2217 93.4903 48.9005 96.5122 51.9032C99.5297 54.9 101.254 59.0816 101.401 63.8549C101.469 66.0944 101.51 68.6711 101.51 71.6279C101.51 74.5848 101.469 77.1615 101.401 79.4024C101.254 84.1742 99.5297 88.3558 96.5122 91.3526C93.4903 94.3553 89.3043 96.0342 84.4999 96.0342C79.6956 96.0342 75.5096 94.3553 72.4876 91.3526C69.4701 88.3558 67.7454 84.1742 67.599 79.4009C67.5231 76.8106 67.4866 74.2193 67.4895 71.6279C67.4895 68.6696 67.5309 66.0944 67.599 63.8534C67.7439 59.0816 69.4701 54.9015 72.4876 51.9032ZM63.1348 73.8467C63.3597 73.8467 63.5816 73.8595 63.8005 73.8851C63.8153 75.956 63.8508 77.8271 63.904 79.5148C64.0741 85.1209 66.1168 90.2388 69.8813 93.9767C73.6591 97.7278 78.8096 99.7321 84.4999 99.7321C90.1903 99.7321 95.3422 97.7278 99.1185 93.9767C102.882 90.2373 104.926 85.1209 105.097 79.5148C105.149 77.8212 105.186 75.9427 105.201 73.8629C105.345 73.8531 105.49 73.8477 105.636 73.8467H107.238C110.554 73.8467 113.194 76.6083 113.11 79.892C112.746 94.1911 103.929 104.721 90.7435 107.273C90.6582 108.104 90.5576 108.934 90.4417 109.762C90.1607 111.759 88.6194 113.57 86.306 113.726C85.8001 113.763 85.1986 113.782 84.5014 113.784C83.8032 113.782 83.2012 113.763 82.6953 113.726C80.3819 113.568 78.8377 111.759 78.5611 109.758C78.4496 108.947 78.3524 108.133 78.2697 107.319C64.9513 104.851 56.026 94.2814 55.6577 79.8935C55.5748 76.6098 58.2166 73.8482 61.5299 73.8482L63.1348 73.8467Z" fill="white"/>
<defs>
<filter id="filter0_d_0_1" x="0" y="0" width="169" height="169" filterUnits="userSpaceOnUse" color-interpolation-filters="sRGB">
<feFlood flood-opacity="0" result="BackgroundImageFix"/>
<feColorMatrix in="SourceAlpha" type="matrix" values="0 0 0 0 0 0 0 0 0 0 0 0 0 0 0 0 0 0 127 0" result="hardAlpha"/>
<feOffset dy="4"/>
<feGaussianBlur stdDeviation="2"/>
<feComposite in2="hardAlpha" operator="out"/>
<feColorMatrix type="matrix" values="0 0 0 0 0 0 0 0 0 0 0 0 0 0 0 0 0 0 0.25 0"/>
<feBlend mode="normal" in2="BackgroundImageFix" result="effect1_dropShadow_0_1"/>
<feBlend mode="normal" in="SourceGraphic" in2="effect1_dropShadow_0_1" result="shape"/>
</filter>
</defs>
</svg>
