<svg width="24" height="24" viewBox="0 0 24 24" fill="none" xmlns="http://www.w3.org/2000/svg">
<path d="M16.263 8.36093L16.264 8.17693C16.273 7.59893 16.583 7.01793 17.161 7.01793H18.011C18.0827 7.01793 18.1513 7.04638 18.202 7.09701C18.2526 7.14765 18.281 7.21633 18.281 7.28793V15.9419C18.281 16.2329 18.344 16.7469 18.5 16.9259C18.656 17.0969 18.939 17.1829 19.3 17.1829H20.48C20.822 17.1829 21.07 17.4039 21.1241 17.7429C21.1821 18.026 21.1989 18.316 21.174 18.6039C21.174 18.8379 20.977 19.0139 20.743 19.0199C20.623 19.0229 20.476 19.0179 20.109 19.0179C19.641 19.0479 18.874 19.0179 18.389 19.0179C17.552 19.0179 17.199 18.9589 16.747 18.5779C16.154 18.0779 16.247 17.3479 16.247 16.5779L16.263 8.36093ZM20.3321 10.0209C20.8381 10.0209 21.323 10.3539 21.323 10.8609C21.323 11.0169 21.316 10.8579 21.3 10.9999C21.25 11.4029 20.9151 11.6689 20.5091 11.6729L17.296 11.7069H14.616C14.135 11.7069 13.876 11.3829 13.876 10.9019C13.876 10.3669 14.176 10.0019 14.711 10.0049L17.3 10.0179L20.3321 10.0209ZM3.43305 7.00493C3.12605 7.00393 2.85305 6.79293 2.82405 6.48793C2.80836 6.32841 2.80035 6.16823 2.80005 6.00793C2.80005 5.8586 2.80805 5.69793 2.82405 5.52593C2.85405 5.21593 3.13205 4.99993 3.44405 4.99893L13.145 4.98193C13.429 4.98193 13.688 5.15893 13.729 5.43993C13.7537 5.6046 13.766 5.76527 13.766 5.92193C13.766 6.30993 13.647 6.58593 13.409 6.74993C13.1704 6.90593 12.8004 6.98427 12.299 6.98493L11.387 7.01493C11.231 7.01493 10.997 7.01093 10.685 7.00293C10.2234 6.99427 9.76175 6.98827 9.30005 6.98493H7.30005C7.13605 6.98493 7.46005 6.99493 7.15705 7.00293C6.85305 7.01093 6.11405 7.01393 5.94205 7.01393L3.43305 7.00493ZM7.30005 8.64093V7.82393C7.30805 7.57793 7.31205 7.29793 7.31205 6.98393V6.92193C7.31219 6.71479 7.38207 6.51374 7.51044 6.35117C7.63881 6.1886 7.81818 6.07399 8.01964 6.02582C8.2211 5.97765 8.43291 5.99872 8.62093 6.08564C8.80895 6.17256 8.96223 6.32026 9.05605 6.50493L9.30005 6.98493V18.2639C9.30396 18.4483 9.23728 18.6271 9.11367 18.764C8.99006 18.9008 8.81884 18.9852 8.63505 18.9999C8.40505 19.0149 8.48905 18.9999 8.30005 18.9999C8.09405 18.9999 8.19005 19.0149 7.95305 18.9999C7.77235 18.9854 7.60404 18.9024 7.48263 18.7677C7.36122 18.6331 7.29589 18.4572 7.30005 18.2759V8.64093Z" fill="white"/>
</svg>
